<svg id="Isolation_Mode" data-name="Isolation Mode" xmlns="http://www.w3.org/2000/svg" viewBox="0 0 56 56">
  <defs>
    <style>
      .cls-1 {
        fill: #fff;
        fill-rule: evenodd;
      }
    </style>
  </defs>
  <path id="Amazon-EC2_Icon_64_Squid" data-name="Amazon-EC2 Icon 64 Squid" class="cls-1" d="M15,41h25v-25H15v25ZM42,16h4v2h-4v4h4v2h-4v3h4v2h-4v4h4v2h-4v4h4v2h-4v.14c0,1.03-.84,1.86-1.86,1.86h-.14v4h-2v-4h-4v4h-2v-4h-3v4h-2v-4h-4v4h-2v-4h-4v4h-2v-4h-.14c-1.03,0-1.86-.84-1.86-1.86v-.14h-3v-2h3v-4h-3v-2h3v-4h-3v-2h3v-3h-3v-2h3v-4h-3v-2h3v-.14c0-1.03.84-1.86,1.86-1.86h.14v-4h2v4h4v-4h2v4h4v-4h2v4h3v-4h2v4h4v-4h2v4h.14c1.03,0,1.86.84,1.86,1.86v.14ZM29,53.88c0,.07-.06.12-.12.12H2.12c-.07,0-.12-.06-.12-.12v-26.75c0-.07.06-.12.12-.12h5.88v-2H2.12c-1.17,0-2.12.95-2.12,2.12v26.75c0,1.17.95,2.12,2.12,2.12h26.75c1.17,0,2.12-.95,2.12-2.12v-4.88h-2v4.88ZM56,2.12v26.75c0,1.17-.95,2.12-2.12,2.12h-5.88v-2h5.88c.07,0,.12-.06.12-.12V2.12c0-.07-.06-.12-.12-.12h-26.75c-.07,0-.12.06-.12.12v5.88h-2V2.12c0-1.17.95-2.12,2.12-2.12h26.75c1.17,0,2.12.95,2.12,2.12h0Z"/>
</svg>