<?xml version="1.0" encoding="UTF-8"?>
<svg  xmlns="http://www.w3.org/2000/svg" viewBox="0 0 44 43">

  <g id="Icon-Architecture_48_Arch_Amazon-EC2-Auto-Scaling_48" data-name="Icon-Architecture/48/Arch_Amazon-EC2-Auto-Scaling_48">
    <path fill="white" id="Amazon-EC2-Auto-Scaling_Icon_48_Squid" data-name="Amazon-EC2-Auto-Scaling Icon 48 Squid" class="cls-1" d="M44,20.43h-7.4l3.31-3.31-1.42-1.42-5.74,5.74,5.74,5.74,1.42-1.42-3.31-3.31h7.4v-2.01ZM4.09,17.12l3.31,3.31H0v2.01h7.4l-3.31,3.31,1.42,1.42,5.74-5.74-5.74-5.74-1.42,1.42ZM15.86,28.47h12.06v-12.06h-12.06v12.06ZM29.93,15.4h2.01v2.01h-2.01v2.01h2.01v2.01h-2.01v2.01h2.01v2.01h-2.01v2.01h2.01v2.01h-2.01v-.69c0,.94-.76,1.7-1.7,1.7h.69v2.01h-2.01v-2.01h-2.01v2.01h-2.01v-2.01h-2.01v2.01h-2.01v-2.01h-2.01v2.01h-2.01v-2.01h.69c-.94,0-1.7-.76-1.7-1.7v.69h-2.01v-2.01h2.01v-2.01h-2.01v-2.01h2.01v-2.01h-2.01v-2.01h2.01v-2.01h-2.01v-2.01h2.01v.69c0-.94.76-1.7,1.7-1.7h-.69v-2.01h2.01v2.01h2.01v-2.01h2.01v2.01h2.01v-2.01h2.01v2.01h2.01v-2.01h2.01v2.01h-.69c.94,0,1.7.76,1.7,1.7v-.69ZM22.89,39.15v-5.65h-2.01v5.65l-3.6-3.6-1.42,1.42,6.03,6.03,6.03-6.03-1.42-1.42-3.6,3.6ZM17.2,6.39l-1.27-1.56L21.89,0l5.95,4.82-1.27,1.56-3.68-2.98v6.97h-2.01V3.4l-3.68,2.98Z"/>
  </g>
</svg>