<svg xmlns="http://www.w3.org/2000/svg" viewBox="0 0 802.84777 172.94806"><defs><style>.cls-1{fill:#d591fe;}.cls-2{fill:#1e2125;}</style></defs><g id="Capa_2" data-name="Capa 2"><g id="Capa_1-2" data-name="Capa 1"><path class="cls-1" d="M682.77093,62.12628V80.99414l60.03658-10.26208,60.04026,10.26208V62.12628L742.80751,42.4385Z"/><path class="cls-1" d="M742.80751,0,682.77093,33.82386V52.69253L742.80751,28.2933l60.04026,24.39923V33.82386Z"/><path class="cls-2" d="M209.91406,35.61041q-20.744-.0011-35.76538,8.34449a57.47235,57.47235,0,0,0-22.8894,23.60522q-7.86841,15.25892-7.86866,36.71924.00037,21.21936,7.86866,36.718a57.4679,57.4679,0,0,0,22.8894,23.60522q15.0205,8.34522,35.76538,8.34546,20.50416,0,35.2876-8.34546A55.58093,55.58093,0,0,0,268.092,140.99738q8.10645-15.49732,8.10645-36.718-.00074-32.18847-17.645-50.31055Q240.90942,35.61029,209.91406,35.61041ZM237.334,137.42121q-10.0155,12.1593-27.41992,12.15966-17.88244.00037-27.89673-12.15966-10.0144-12.16077-10.01391-33.14185,0-21.22192,10.01391-33.14258,10.01441-12.16039,27.89673-12.16015,17.406.00036,27.41992,12.16015,10.25172,11.92164,10.2522,33.14258Q247.58618,125.261,237.334,137.42121Z"/><path class="cls-2" d="M97.51953,42.04743q-10.7296-6.43689-25.75122-6.437a53.51937,53.51937,0,0,0-29.08838,8.5835A50.70674,50.70674,0,0,0,28.02441,58.02814l-.843-19.55664H0V170.08673H28.37354v-78.949q6.4453-14.77881,14.783-22.14722,10.49121-9.29919,23.36622-9.29907,11.20678,0,18.12158,7.63061,7.15283,7.62965,7.15307,20.50464v82.26h28.37329V86.15729q-.00072-15.25892-5.96118-26.46582A40.7031,40.7031,0,0,0,97.51953,42.04743Z"/><path class="cls-2" d="M653.55786,59.69171a40.71023,40.71023,0,0,0-16.69092-17.6438q-10.734-6.43689-25.75415-6.437a53.50925,53.50925,0,0,0-29.085,8.5835,49.98359,49.98359,0,0,0-14.3081,13.44043V2.7442h-28.3711V170.087h28.3711V91.13776q6.44568-14.77845,14.78393-22.14649,10.49232-9.29955,23.36377-9.29956,11.21191.00073,18.12232,7.86866,7.15392,7.63,7.15234,20.50512V170.087h28.37476V86.397Q659.51685,71.13813,653.55786,59.69171Z"/><path class="cls-2" d="M465.99561.32257,437.38306,14.62848V35.61041H420.09888v23.1272h17.28418v68.66944a51.084,51.084,0,0,0,4.76928,22.65112A34.54829,34.54829,0,0,0,455.981,164.84186q9.05933,5.24561,21.69848,5.24561H516.186V146.95929H488.408q-9.301-.00036-14.30469-2.14624a12.4268,12.4268,0,0,1-6.43848-6.91406,30.27,30.27,0,0,1-1.66918-10.49194V58.73761H516.186V35.61041H465.99561Z"/><path class="cls-2" d="M390.43921,45.38a44.84463,44.84463,0,0,0-39.45337-7.65015c-9.48022,2.72143-17.61548,9.05005-23.86084,16.772l-.82178-16.02954H299.36011V170.08747h28.37353V125.76276l.00049.00049c.00659-.93384.0044-1.91895-.00049-2.928v-15.8584c.427-18.58521,3.43433-39.78906,20.52857-45.8396,7.67675-2.71753,17.6477-1.39355,23.32275,4.75513q5.96265,5.96009,5.959,15.73657H405.9187C405.9187,67.96515,401.541,54.03131,390.43921,45.38Z"/></g></g></svg>