
<svg class="fill-light text-light" data-name="Layer 1" xmlns="http://www.w3.org/2000/svg" viewBox="0 0 44 44">
  <g id="Icon-Architecture_48_Arch_Amazon-RDS_48" data-name="Icon-Architecture/48/Arch_Amazon-RDS_48">
    <path class="text-light" fill="white"  d="M44,1v8h-2V3.41l-6.29,6.29-1.41-1.41,6.29-6.29h-5.46V0h7.88c.55,0,1,.45,1,1h0ZM2,8.88H0V1C0,.45.45,0,1,0h8v2H3.41l6.29,6.29-1.41,1.41L2,3.41v5.46ZM9.71,35.71l-6.29,6.29h5.46v2H1c-.55,0-1-.45-1-1v-8h2v5.59l6.29-6.29,1.41,1.41ZM41.5,21.78c0-2.43-2.87-4.85-7.67-6.47l.64-1.89c5.74,1.94,9.03,4.99,9.03,8.37s-3.29,6.43-9.03,8.37l-.64-1.9c4.8-1.62,7.67-4.05,7.67-6.47h0ZM2.54,21.78c0,2.32,2.68,4.68,7.17,6.3l-.68,1.88C3.64,28.01.54,25.03.54,21.78s3.1-6.23,8.49-8.18l.68,1.88c-4.49,1.62-7.17,3.98-7.17,6.3h0ZM42,35.12h2v7.88c0,.55-.45,1-1,1h-8v-2h5.59l-6.29-6.29,1.41-1.41,6.29,6.29v-5.46ZM22.02,21.4c-5.02,0-7.9-1.34-8.02-1.92v-3.23c2.16,1.01,5.61,1.34,8,1.34s5.84-.33,8-1.34v3.23c-.11.57-2.95,1.92-7.98,1.92h0ZM22.02,27.13c-5.02,0-7.9-1.34-8.02-1.92v-3.25c1.95.98,5.06,1.45,8.02,1.45s6.03-.46,7.98-1.44v3.25c-.11.58-2.95,1.92-7.98,1.92h0ZM22,32.27c-5.05,0-7.9-1.35-8-1.92v-2.66c1.95.98,5.06,1.45,8.02,1.45s6.03-.46,7.98-1.44v2.65c-.1.58-2.95,1.93-8,1.93h0ZM22,12.19c4.97,0,7.64,1.18,7.98,1.7-.34.52-3.01,1.7-7.98,1.7s-7.77-1.23-8-1.64v-.02c.23-.5,2.91-1.74,8-1.74h0ZM22,10.19c-3.71,0-10,.78-10,3.7v16.45c0,2.69,5.18,3.92,10,3.92s10-1.23,10-3.92V13.89c0-2.92-6.29-3.7-10-3.7h0Z"/>
  </g>
</svg>