<svg xmlns="http://www.w3.org/2000/svg" viewBox="0 0 263.50035 170.08673"><defs><style>.cls-1{fill:#d591fe;}.cls-2{fill:#1e2125;}</style></defs><g id="Capa_2" data-name="Capa 2"><g id="Capa_1-2" data-name="Capa 1"><path class="cls-1" d="M143.42352,62.12628V80.99414l60.03657-10.26208,60.04026,10.26208V62.12628L203.46009,42.4385Z"/><path class="cls-1" d="M203.46009,0,143.42352,33.82386V52.69253L203.46009,28.2933l60.04026,24.39923V33.82386Z"/><path class="cls-2" d="M97.51953,42.04743q-10.7296-6.43689-25.75122-6.437a53.51937,53.51937,0,0,0-29.08838,8.5835A50.70674,50.70674,0,0,0,28.02441,58.02814l-.843-19.55664H0V170.08673H28.37354v-78.949q6.4453-14.77881,14.783-22.14722,10.49121-9.29919,23.36622-9.29907,11.20678,0,18.12158,7.63061,7.15283,7.62965,7.15307,20.50464v82.26h28.37329V86.15729q-.00072-15.25892-5.96118-26.46582A40.7031,40.7031,0,0,0,97.51953,42.04743Z"/></g></g></svg>