<?xml version="1.0" encoding="UTF-8"?>
<svg class="fill-light text-light" xmlns="http://www.w3.org/2000/svg" viewBox="0 0 42.35 44.12">

  <g id="Icon-Resource_x2F_Storage_x2F_Res_x5F_Amazon-Simple-Storage_x5F_Service-Intelligent-Tiering_x5F_48">
    <path fill="white"  d="M35.62,33.32c0,.97.64,1.32,1.97,1.7.13.04.25.07.36.11.09.03.19.06.3.09,1.02.29,3.42.98,3.42,3.62,0,1.85-1.45,3.22-3.49,3.41v1.74h-2v-1.94c-.43-.14-.83-.33-1.17-.58-.89-.64-1.38-1.59-1.38-2.67h2c0,1.18,1.36,1.49,2.08,1.49s1.97-.31,1.97-1.45c0-.97-.64-1.32-1.97-1.7-.13-.04-.26-.07-.36-.11-.09-.03-.19-.06-.3-.09-1.02-.29-3.42-.98-3.42-3.62,0-1.07.47-2,1.31-2.62.36-.26.78-.46,1.24-.6v-2.11h2v1.96c1.79.23,3.49,1.43,3.49,3.48h-2c0-1.12-1.28-1.53-2.13-1.53-.56,0-1.07.15-1.42.4-.33.24-.5.57-.5,1.01M37.56,24.17l.22-1.65c1.74,1.06,2.31,1.69,2.49,1.97-.29.06-1.03.09-2.71-.32M19.92,11.5c-10.31,0-17.31-2.45-17.89-4.23l-.03-.23c.14-1.8,7.49-5.03,17.92-5.03s17.79,3.23,17.93,5.03l-.03.23c-.58,1.79-7.58,4.24-17.89,4.24M20.17,18v-1s0,1,0,1c0,0,0,0,0,0M42.32,24.29c-.22-1.15-1.54-2.37-4.25-3.91l1.71-12.7s.01-.05.01-.07l.05-.39s0-.09,0-.13c0-4.17-10.5-7.08-19.93-7.08S0,2.91,0,7.08c0,.04,0,.09,0,.13l.05.39s0,0,0,.02l4.23,31.45c.13,3.68,9.63,5.06,15.64,5.06,3.3,0,6.62-.35,9.37-.97,1.13-.26,2.12-.56,2.92-.89.33-.13.62-.26.9-.39l-.85-1.81c-.25.12-.51.23-.8.35-.72.29-1.6.55-2.63.8-2.6.6-5.77.92-8.92.92-8.49,0-13.64-2.18-13.64-3.13,0-.05,0-.09,0-.13L2.44,10.29c3.62,2.11,10.72,3.21,17.48,3.21s13.86-1.09,17.48-3.21l-1.79,13.33c-4.58-1.44-10.69-4.22-13.45-5.52,0-.03.01-.06.01-.1,0-1.1-.9-2-2-2s-2,.9-2,2,.9,2,2,2c.32,0,.61-.08.88-.21,3.12,1.48,9.51,4.39,14.29,5.84l-.21,1.56,1.98.27.17-1.3c1.02.24,1.86.36,2.55.36.99,0,1.66-.25,2.09-.76.35-.42.49-.94.39-1.48"/>
  </g>
</svg>