<svg xmlns="http://www.w3.org/2000/svg" viewBox="0 0 659.51685 377.34249"><defs><style>.cls-1{fill:#f8fcfd;}</style></defs><g id="Capa_2" data-name="Capa 2"><g id="Capa_1-2" data-name="Capa 1"><path class="cls-1" d="M209.91406,240.00484q-20.744-.0011-35.76538,8.34448a57.47237,57.47237,0,0,0-22.8894,23.60523q-7.86841,15.2589-7.86866,36.71924.00037,21.21936,7.86866,36.718a57.46787,57.46787,0,0,0,22.8894,23.60523q15.0205,8.3452,35.76538,8.34546,20.50416,0,35.2876-8.34546A55.5809,55.5809,0,0,0,268.092,345.3918q8.10645-15.49731,8.10645-36.718-.00074-32.18848-17.645-50.31055Q240.90942,240.00471,209.91406,240.00484ZM237.334,341.81563q-10.0155,12.1593-27.41992,12.15967-17.88244.00036-27.89673-12.15967-10.0144-12.16077-10.01391-33.14184,0-21.22192,10.01391-33.14258,10.01441-12.16041,27.89673-12.16016,17.406.00038,27.41992,12.16016,10.25172,11.92162,10.2522,33.14258Q247.58618,329.65548,237.334,341.81563Z"/><path class="cls-1" d="M97.51953,246.44185q-10.7296-6.43689-25.75122-6.437a53.51937,53.51937,0,0,0-29.08838,8.5835,50.7067,50.7067,0,0,0-14.65552,13.83422l-.843-19.55664H0V374.48116H28.37354v-78.949q6.4453-14.77881,14.783-22.14721,10.49121-9.29921,23.36622-9.29908,11.20678,0,18.12158,7.63062,7.15283,7.62964,7.15307,20.50464v82.26h28.37329V290.55171q-.00072-15.2589-5.96118-26.46582A40.70315,40.70315,0,0,0,97.51953,246.44185Z"/><path class="cls-1" d="M653.55786,264.08614a40.71023,40.71023,0,0,0-16.69092-17.6438q-10.734-6.43689-25.75415-6.437a53.50924,53.50924,0,0,0-29.085,8.58349,49.98372,49.98372,0,0,0-14.3081,13.44043V207.13863h-28.3711V374.4814h28.3711V295.53218q6.44568-14.77844,14.78393-22.14648,10.49232-9.29956,23.36377-9.29956,11.21191.00074,18.12232,7.86865,7.15392,7.63,7.15234,20.50513V374.4814h28.37476V290.79146Q659.51685,275.53255,653.55786,264.08614Z"/><path class="cls-1" d="M465.99561,204.717l-28.61255,14.30591v20.98193H420.09888V263.132h17.28418v68.66943a51.08392,51.08392,0,0,0,4.76928,22.65112,34.54832,34.54832,0,0,0,13.82862,14.7837q9.05933,5.24561,21.69848,5.2456H516.186V351.35372H488.408q-9.301-.00038-14.30469-2.14624a12.42685,12.42685,0,0,1-6.43848-6.91407,30.26993,30.26993,0,0,1-1.66918-10.49194V263.132H516.186v-23.1272H465.99561Z"/><path class="cls-1" d="M390.43921,249.77437a44.84471,44.84471,0,0,0-39.45337-7.65015c-9.48022,2.72144-17.61548,9.05-23.86084,16.772l-.82178-16.02954H299.36011V374.48189h28.37353V330.15718l.00049.00049c.00659-.93384.0044-1.91894-.00049-2.928V311.3713c.427-18.58521,3.43433-39.78907,20.52857-45.8396,7.67675-2.71753,17.6477-1.39356,23.32275,4.75512q5.96265,5.96008,5.959,15.73657H405.9187C405.9187,272.35958,401.541,258.42574,390.43921,249.77437Z"/><path class="cls-1" d="M193.52124,140.97489v42.81432l136.233-23.28637,136.24137,23.28637V140.97489L329.75424,96.30005Z"/><path class="cls-1" d="M329.75424,0l-136.233,76.752v42.81615l136.233-55.36592,136.24137,55.36592V76.752Z"/></g></g></svg>